<?xml version="1.0" standalone="no"?>
<!DOCTYPE svg PUBLIC "-//W3C//DTD SVG 20010904//EN"
 "http://www.w3.org/TR/2001/REC-SVG-20010904/DTD/svg10.dtd">
<svg version="1.0" xmlns="http://www.w3.org/2000/svg"
 width="90.000000pt" height="90.000000pt" viewBox="0 0 90.000000 90.000000"
 preserveAspectRatio="xMidYMid meet">
<metadata>
Created by potrace 1.11, written by Peter Selinger 2001-2013
</metadata>
<g transform="translate(0.000000,90.000000) scale(0.100000,-0.100000)"
fill="#000000" stroke="none">
<path d="M95 886 c-41 -18 -83 -69 -90 -109 -3 -18 -5 -177 -3 -354 l3 -321
31 -39 c50 -62 67 -64 435 -61 l326 3 37 29 c63 48 65 55 66 414 1 361 -1 369
-68 420 l-35 27 -336 2 c-265 2 -342 0 -366 -11z m705 -34 c67 -33 70 -48 70
-402 0 -453 33 -420 -420 -420 -453 0 -420 -33 -420 425 0 303 1 322 20 353
36 59 51 61 400 62 280 0 319 -2 350 -18z"/>
<path d="M382 734 c-130 -40 -203 -140 -204 -279 -1 -111 37 -194 114 -249 97
-70 258 -66 342 6 l38 33 -31 33 c-17 17 -35 32 -39 32 -4 0 -28 -11 -53 -23
-27 -14 -60 -23 -80 -21 -19 1 -39 3 -46 3 -25 2 -82 63 -96 104 -17 51 -14
134 6 173 44 84 141 114 228 70 47 -24 63 -20 92 21 l26 36 -24 19 c-63 50
-187 69 -273 42z"/>
</g>
</svg>
